# MagicaVoxel @ Ephtracy

# group
o 

# material
mtllib Robot-0.mtl
usemtl palette

# normals
vn -1 0 0
vn 1 0 0
vn 0 0 1
vn 0 0 -1
vn 0 -1 0
vn 0 1 0

# texcoords
vt 0.0449219 0.5
vt 0.150391 0.5
vt 0.427734 0.5

# verts
v -0.5 0.8 0.5
v -0.5 0.8 0.4
v -0.5 0.8 0.2
v -0.5 0.8 -0.2
v -0.5 1 0.5
v -0.5 1 0.4
v -0.5 1 0.2
v -0.5 1 -0.2
v -0.4 0.8 -0.2
v -0.4 0.8 -0.3
v -0.4 1 -0.2
v -0.4 1 -0.3
v -0.3 0.8 -0.3
v -0.3 0.8 -0.4
v -0.3 0.8 -0.5
v -0.3 1 -0.3
v -0.3 1 -0.4
v -0.3 1 -0.5
v 0.1 0.8 0
v 0.1 0.8 -0.1
v 0.1 0.8 -0.4
v 0.1 0.8 -0.5
v 0.1 1 0
v 0.1 1 -0.1
v 0.1 1 -0.4
v 0.1 1 -0.5
v 0.2 0.8 0.1
v 0.2 0.8 0
v 0.2 1 0.1
v 0.2 1 0
v 0.3 0.8 0.5
v 0.3 0.8 0.4
v 0.3 0.8 0.2
v 0.3 0.8 0.1
v 0.3 1 0.5
v 0.3 1 0.4
v 0.3 1 0.2
v 0.3 1 0.1
v -0.3 0.8 0.5
v -0.3 0.8 0.4
v -0.3 0.8 0.2
v -0.3 0.8 0.1
v -0.3 1 0.5
v -0.3 1 0.4
v -0.3 1 0.2
v -0.3 1 0.1
v -0.2 0.8 0.1
v -0.2 0.8 0
v -0.2 1 0.1
v -0.2 1 0
v -0.1 0.8 0
v -0.1 0.8 -0.1
v -0.1 0.8 -0.4
v -0.1 0.8 -0.5
v -0.1 1 0
v -0.1 1 -0.1
v -0.1 1 -0.4
v -0.1 1 -0.5
v 0.3 0.8 -0.3
v 0.3 0.8 -0.4
v 0.3 0.8 -0.5
v 0.3 1 -0.3
v 0.3 1 -0.4
v 0.3 1 -0.5
v 0.4 0.8 -0.2
v 0.4 0.8 -0.3
v 0.4 1 -0.2
v 0.4 1 -0.3
v 0.5 0.8 0.5
v 0.5 0.8 0.4
v 0.5 0.8 0.2
v 0.5 0.8 -0.2
v 0.5 1 0.5
v 0.5 1 0.4
v 0.5 1 0.2
v 0.5 1 -0.2
v -0.5 0.8 0.5
v -0.5 1 0.5
v -0.3 0.8 0.5
v -0.3 1 0.5
v 0.3 0.8 0.5
v 0.3 1 0.5
v 0.5 0.8 0.5
v 0.5 1 0.5
v -0.3 0.8 0.1
v -0.3 1 0.1
v -0.2 0.8 0.1
v -0.2 1 0.1
v 0.2 0.8 0.1
v 0.2 1 0.1
v 0.3 0.8 0.1
v 0.3 1 0.1
v -0.2 0.8 0
v -0.2 1 0
v -0.1 0.8 0
v -0.1 1 0
v 0.1 0.8 0
v 0.1 1 0
v 0.2 0.8 0
v 0.2 1 0
v -0.1 0.8 -0.1
v -0.1 1 -0.1
v 0.1 0.8 -0.1
v 0.1 1 -0.1
v -0.5 0.8 -0.2
v -0.5 1 -0.2
v -0.4 0.8 -0.2
v -0.4 1 -0.2
v 0.4 0.8 -0.2
v 0.4 1 -0.2
v 0.5 0.8 -0.2
v 0.5 1 -0.2
v -0.4 0.8 -0.3
v -0.4 1 -0.3
v -0.3 0.8 -0.3
v -0.3 1 -0.3
v 0.3 0.8 -0.3
v 0.3 1 -0.3
v 0.4 0.8 -0.3
v 0.4 1 -0.3
v -0.1 0.8 -0.4
v -0.1 1 -0.4
v 0.1 0.8 -0.4
v 0.1 1 -0.4
v -0.3 0.8 -0.5
v -0.3 1 -0.5
v -0.1 0.8 -0.5
v -0.1 1 -0.5
v 0.1 0.8 -0.5
v 0.1 1 -0.5
v 0.3 0.8 -0.5
v 0.3 1 -0.5
v -0.5 0.8 0.5
v -0.3 0.8 0.5
v 0.3 0.8 0.5
v 0.5 0.8 0.5
v -0.5 0.8 0.4
v -0.3 0.8 0.4
v 0.3 0.8 0.4
v 0.5 0.8 0.4
v -0.5 0.8 0.2
v -0.3 0.8 0.2
v 0.3 0.8 0.2
v 0.5 0.8 0.2
v -0.3 0.8 0.1
v -0.2 0.8 0.1
v 0.2 0.8 0.1
v 0.3 0.8 0.1
v -0.2 0.8 0
v -0.1 0.8 0
v 0.1 0.8 0
v 0.2 0.8 0
v -0.1 0.8 -0.1
v 0.1 0.8 -0.1
v -0.5 0.8 -0.2
v -0.4 0.8 -0.2
v 0.4 0.8 -0.2
v 0.5 0.8 -0.2
v -0.4 0.8 -0.3
v -0.3 0.8 -0.3
v -0.2 0.8 -0.3
v -0.1 0.8 -0.3
v 0.1 0.8 -0.3
v 0.2 0.8 -0.3
v 0.3 0.8 -0.3
v 0.4 0.8 -0.3
v -0.3 0.8 -0.4
v -0.2 0.8 -0.4
v -0.1 0.8 -0.4
v 0.1 0.8 -0.4
v 0.2 0.8 -0.4
v 0.3 0.8 -0.4
v -0.3 0.8 -0.5
v -0.1 0.8 -0.5
v 0.1 0.8 -0.5
v 0.3 0.8 -0.5
v -0.5 1 0.5
v -0.3 1 0.5
v 0.3 1 0.5
v 0.5 1 0.5
v -0.5 1 0.4
v -0.3 1 0.4
v 0.3 1 0.4
v 0.5 1 0.4
v -0.5 1 0.2
v -0.3 1 0.2
v 0.3 1 0.2
v 0.5 1 0.2
v -0.3 1 0.1
v -0.2 1 0.1
v 0.2 1 0.1
v 0.3 1 0.1
v -0.2 1 0
v -0.1 1 0
v 0.1 1 0
v 0.2 1 0
v -0.1 1 -0.1
v 0.1 1 -0.1
v -0.5 1 -0.2
v -0.4 1 -0.2
v 0.4 1 -0.2
v 0.5 1 -0.2
v -0.4 1 -0.3
v -0.3 1 -0.3
v -0.2 1 -0.3
v -0.1 1 -0.3
v 0.1 1 -0.3
v 0.2 1 -0.3
v 0.3 1 -0.3
v 0.4 1 -0.3
v -0.3 1 -0.4
v -0.2 1 -0.4
v -0.1 1 -0.4
v 0.1 1 -0.4
v 0.2 1 -0.4
v 0.3 1 -0.4
v -0.3 1 -0.5
v -0.1 1 -0.5
v 0.1 1 -0.5
v 0.3 1 -0.5

# faces
f 5/3/1 2/3/1 1/3/1
f 6/2/1 3/2/1 2/2/1
f 6/3/1 2/3/1 5/3/1
f 7/1/1 4/1/1 3/1/1
f 7/2/1 3/2/1 6/2/1
f 8/1/1 4/1/1 7/1/1
f 11/1/1 10/1/1 9/1/1
f 12/1/1 10/1/1 11/1/1
f 16/1/1 14/1/1 13/1/1
f 17/2/1 15/2/1 14/2/1
f 17/1/1 14/1/1 16/1/1
f 18/2/1 15/2/1 17/2/1
f 23/1/1 20/1/1 19/1/1
f 24/1/1 20/1/1 23/1/1
f 25/2/1 22/2/1 21/2/1
f 26/2/1 22/2/1 25/2/1
f 29/1/1 28/1/1 27/1/1
f 30/1/1 28/1/1 29/1/1
f 35/3/1 32/3/1 31/3/1
f 36/2/1 33/2/1 32/2/1
f 36/3/1 32/3/1 35/3/1
f 37/1/1 34/1/1 33/1/1
f 37/2/1 33/2/1 36/2/1
f 38/1/1 34/1/1 37/1/1
f 39/3/2 40/3/2 43/3/2
f 40/2/2 41/2/2 44/2/2
f 43/3/2 40/3/2 44/3/2
f 41/1/2 42/1/2 45/1/2
f 44/2/2 41/2/2 45/2/2
f 45/1/2 42/1/2 46/1/2
f 47/1/2 48/1/2 49/1/2
f 49/1/2 48/1/2 50/1/2
f 51/1/2 52/1/2 55/1/2
f 55/1/2 52/1/2 56/1/2
f 53/2/2 54/2/2 57/2/2
f 57/2/2 54/2/2 58/2/2
f 59/1/2 60/1/2 62/1/2
f 60/2/2 61/2/2 63/2/2
f 62/1/2 60/1/2 63/1/2
f 63/2/2 61/2/2 64/2/2
f 65/1/2 66/1/2 67/1/2
f 67/1/2 66/1/2 68/1/2
f 69/3/2 70/3/2 73/3/2
f 70/2/2 71/2/2 74/2/2
f 73/3/2 70/3/2 74/3/2
f 71/1/2 72/1/2 75/1/2
f 74/2/2 71/2/2 75/2/2
f 75/1/2 72/1/2 76/1/2
f 79/3/3 78/3/3 77/3/3
f 80/3/3 78/3/3 79/3/3
f 83/3/3 82/3/3 81/3/3
f 84/3/3 82/3/3 83/3/3
f 87/1/3 86/1/3 85/1/3
f 88/1/3 86/1/3 87/1/3
f 91/1/3 90/1/3 89/1/3
f 92/1/3 90/1/3 91/1/3
f 95/1/3 94/1/3 93/1/3
f 96/1/3 94/1/3 95/1/3
f 99/1/3 98/1/3 97/1/3
f 100/1/3 98/1/3 99/1/3
f 103/2/3 102/2/3 101/2/3
f 104/2/3 102/2/3 103/2/3
f 105/1/4 106/1/4 107/1/4
f 107/1/4 106/1/4 108/1/4
f 109/1/4 110/1/4 111/1/4
f 111/1/4 110/1/4 112/1/4
f 113/1/4 114/1/4 115/1/4
f 115/1/4 114/1/4 116/1/4
f 117/1/4 118/1/4 119/1/4
f 119/1/4 118/1/4 120/1/4
f 121/2/4 122/2/4 123/2/4
f 123/2/4 122/2/4 124/2/4
f 125/2/4 126/2/4 127/2/4
f 127/2/4 126/2/4 128/2/4
f 129/2/4 130/2/4 131/2/4
f 131/2/4 130/2/4 132/2/4
f 137/3/5 134/3/5 133/3/5
f 138/3/5 134/3/5 137/3/5
f 139/3/5 136/3/5 135/3/5
f 140/3/5 136/3/5 139/3/5
f 141/2/5 138/2/5 137/2/5
f 142/2/5 138/2/5 141/2/5
f 143/2/5 140/2/5 139/2/5
f 144/2/5 140/2/5 143/2/5
f 145/1/5 142/1/5 141/1/5
f 148/1/5 144/1/5 143/1/5
f 149/1/5 146/1/5 145/1/5
f 152/1/5 148/1/5 147/1/5
f 153/1/5 150/1/5 149/1/5
f 154/1/5 152/1/5 151/1/5
f 155/1/5 153/1/5 149/1/5
f 155/1/5 145/1/5 141/1/5
f 155/1/5 149/1/5 145/1/5
f 156/1/5 153/1/5 155/1/5
f 157/1/5 152/1/5 154/1/5
f 157/1/5 144/1/5 148/1/5
f 157/1/5 148/1/5 152/1/5
f 158/1/5 144/1/5 157/1/5
f 159/1/5 153/1/5 156/1/5
f 160/1/5 153/1/5 159/1/5
f 161/1/5 153/1/5 160/1/5
f 162/2/5 154/2/5 153/2/5
f 162/1/5 153/1/5 161/1/5
f 163/1/5 157/1/5 154/1/5
f 163/2/5 154/2/5 162/2/5
f 164/1/5 157/1/5 163/1/5
f 165/1/5 157/1/5 164/1/5
f 166/1/5 157/1/5 165/1/5
f 167/1/5 161/1/5 160/1/5
f 168/2/5 162/2/5 161/2/5
f 168/1/5 161/1/5 167/1/5
f 168/2/5 163/2/5 162/2/5
f 168/2/5 164/2/5 163/2/5
f 169/2/5 164/2/5 168/2/5
f 170/2/5 164/2/5 169/2/5
f 171/1/5 165/1/5 164/1/5
f 171/2/5 164/2/5 170/2/5
f 172/1/5 165/1/5 171/1/5
f 173/2/5 168/2/5 167/2/5
f 173/2/5 169/2/5 168/2/5
f 174/2/5 169/2/5 173/2/5
f 175/2/5 172/2/5 171/2/5
f 175/2/5 171/2/5 170/2/5
f 176/2/5 172/2/5 175/2/5
f 177/3/6 178/3/6 181/3/6
f 181/3/6 178/3/6 182/3/6
f 179/3/6 180/3/6 183/3/6
f 183/3/6 180/3/6 184/3/6
f 181/2/6 182/2/6 185/2/6
f 185/2/6 182/2/6 186/2/6
f 183/2/6 184/2/6 187/2/6
f 187/2/6 184/2/6 188/2/6
f 185/1/6 186/1/6 189/1/6
f 187/1/6 188/1/6 192/1/6
f 189/1/6 190/1/6 193/1/6
f 191/1/6 192/1/6 196/1/6
f 193/1/6 194/1/6 197/1/6
f 195/1/6 196/1/6 198/1/6
f 193/1/6 197/1/6 199/1/6
f 185/1/6 189/1/6 199/1/6
f 189/1/6 193/1/6 199/1/6
f 199/1/6 197/1/6 200/1/6
f 198/1/6 196/1/6 201/1/6
f 192/1/6 188/1/6 201/1/6
f 196/1/6 192/1/6 201/1/6
f 201/1/6 188/1/6 202/1/6
f 200/1/6 197/1/6 203/1/6
f 203/1/6 197/1/6 204/1/6
f 204/1/6 197/1/6 205/1/6
f 197/2/6 198/2/6 206/2/6
f 205/1/6 197/1/6 206/1/6
f 198/1/6 201/1/6 207/1/6
f 206/2/6 198/2/6 207/2/6
f 207/1/6 201/1/6 208/1/6
f 208/1/6 201/1/6 209/1/6
f 209/1/6 201/1/6 210/1/6
f 204/1/6 205/1/6 211/1/6
f 205/2/6 206/2/6 212/2/6
f 211/1/6 205/1/6 212/1/6
f 206/2/6 207/2/6 212/2/6
f 207/2/6 208/2/6 212/2/6
f 212/2/6 208/2/6 213/2/6
f 213/2/6 208/2/6 214/2/6
f 208/1/6 209/1/6 215/1/6
f 214/2/6 208/2/6 215/2/6
f 215/1/6 209/1/6 216/1/6
f 211/2/6 212/2/6 217/2/6
f 212/2/6 213/2/6 217/2/6
f 217/2/6 213/2/6 218/2/6
f 215/2/6 216/2/6 219/2/6
f 214/2/6 215/2/6 219/2/6
f 219/2/6 216/2/6 220/2/6
