# MagicaVoxel @ Ephtracy

# group
o 

# material
mtllib Robot-1.mtl
usemtl palette

# normals
vn -1 0 0
vn 1 0 0
vn 0 0 1
vn 0 0 -1
vn 0 -1 0
vn 0 1 0

# texcoords
vt 0.0449219 0.5
vt 0.150391 0.5
vt 0.388672 0.5
vt 0.396484 0.5

# verts
v -0.4 0.6 0.5
v -0.4 0.6 0.4
v -0.4 0.6 -0.3
v -0.4 0.6 -0.4
v -0.4 0.6 -0.5
v -0.4 0.7 0.5
v -0.4 0.7 0.4
v -0.4 0.7 -0.3
v -0.4 0.7 -0.4
v -0.4 0.7 -0.5
v -0.3 0.6 0.4
v -0.3 0.6 -0.3
v -0.3 0.7 0.4
v -0.3 0.7 -0.3
v -0.2 0.5 0.2
v -0.2 0.5 -0.4
v -0.2 0.6 0.2
v -0.2 0.6 -0.4
v -0.2 0.7 0.2
v -0.2 0.7 -0.4
v -0.2 0.8 0.2
v -0.2 0.8 -0.4
v 0.2 0.5 0.2
v 0.2 0.5 -0.4
v 0.2 0.6 0.2
v 0.2 0.6 -0.4
v 0.2 0.7 0.2
v 0.2 0.7 -0.4
v 0.2 0.8 0.2
v 0.2 0.8 -0.4
v 0.3 0.6 0.4
v 0.3 0.6 -0.3
v 0.3 0.7 0.4
v 0.3 0.7 -0.3
v 0.4 0.6 0.5
v 0.4 0.6 0.4
v 0.4 0.6 -0.3
v 0.4 0.6 -0.4
v 0.4 0.6 -0.5
v 0.4 0.7 0.5
v 0.4 0.7 0.4
v 0.4 0.7 -0.3
v 0.4 0.7 -0.4
v 0.4 0.7 -0.5
v -0.4 0.6 0.5
v -0.4 0.7 0.5
v -0.3 0.6 0.5
v -0.3 0.7 0.5
v 0.3 0.6 0.5
v 0.3 0.7 0.5
v 0.4 0.6 0.5
v 0.4 0.7 0.5
v -0.2 0.5 0.2
v -0.2 0.6 0.2
v -0.2 0.7 0.2
v -0.2 0.8 0.2
v 0.2 0.5 0.2
v 0.2 0.6 0.2
v 0.2 0.7 0.2
v 0.2 0.8 0.2
v -0.4 0.6 -0.3
v -0.4 0.7 -0.3
v -0.3 0.6 -0.3
v -0.3 0.7 -0.3
v 0.3 0.6 -0.3
v 0.3 0.7 -0.3
v 0.4 0.6 -0.3
v 0.4 0.7 -0.3
v -0.4 0.6 0.4
v -0.4 0.7 0.4
v -0.3 0.6 0.4
v -0.3 0.7 0.4
v 0.3 0.6 0.4
v 0.3 0.7 0.4
v 0.4 0.6 0.4
v 0.4 0.7 0.4
v -0.2 0.5 -0.4
v -0.2 0.6 -0.4
v -0.2 0.7 -0.4
v -0.2 0.8 -0.4
v 0.2 0.5 -0.4
v 0.2 0.6 -0.4
v 0.2 0.7 -0.4
v 0.2 0.8 -0.4
v -0.4 0.6 -0.5
v -0.4 0.7 -0.5
v -0.3 0.6 -0.5
v -0.3 0.7 -0.5
v 0.3 0.6 -0.5
v 0.3 0.7 -0.5
v 0.4 0.6 -0.5
v 0.4 0.7 -0.5
v -0.2 0.5 0.2
v 0.2 0.5 0.2
v -0.2 0.5 -0.4
v 0.2 0.5 -0.4
v -0.4 0.6 0.5
v -0.3 0.6 0.5
v 0.3 0.6 0.5
v 0.4 0.6 0.5
v -0.4 0.6 0.4
v -0.3 0.6 0.4
v 0.3 0.6 0.4
v 0.4 0.6 0.4
v -0.2 0.6 0.2
v 0.2 0.6 0.2
v -0.4 0.6 -0.3
v -0.3 0.6 -0.3
v 0.3 0.6 -0.3
v 0.4 0.6 -0.3
v -0.4 0.6 -0.4
v -0.3 0.6 -0.4
v -0.2 0.6 -0.4
v 0.2 0.6 -0.4
v 0.3 0.6 -0.4
v 0.4 0.6 -0.4
v -0.4 0.6 -0.5
v -0.3 0.6 -0.5
v 0.3 0.6 -0.5
v 0.4 0.6 -0.5
v -0.4 0.7 0.5
v -0.3 0.7 0.5
v 0.3 0.7 0.5
v 0.4 0.7 0.5
v -0.4 0.7 0.4
v -0.3 0.7 0.4
v 0.3 0.7 0.4
v 0.4 0.7 0.4
v -0.2 0.7 0.2
v 0.2 0.7 0.2
v -0.4 0.7 -0.3
v -0.3 0.7 -0.3
v 0.3 0.7 -0.3
v 0.4 0.7 -0.3
v -0.4 0.7 -0.4
v -0.3 0.7 -0.4
v -0.2 0.7 -0.4
v 0.2 0.7 -0.4
v 0.3 0.7 -0.4
v 0.4 0.7 -0.4
v -0.4 0.7 -0.5
v -0.3 0.7 -0.5
v 0.3 0.7 -0.5
v 0.4 0.7 -0.5
v -0.2 0.8 0.2
v 0.2 0.8 0.2
v -0.2 0.8 -0.4
v 0.2 0.8 -0.4

# faces
f 6/3/1 2/3/1 1/3/1
f 7/3/1 2/3/1 6/3/1
f 8/1/1 4/1/1 3/1/1
f 9/4/1 5/4/1 4/4/1
f 9/1/1 4/1/1 8/1/1
f 10/4/1 5/4/1 9/4/1
f 13/1/1 12/1/1 11/1/1
f 14/1/1 12/1/1 13/1/1
f 17/2/1 16/2/1 15/2/1
f 18/2/1 16/2/1 17/2/1
f 21/2/1 20/2/1 19/2/1
f 22/2/1 20/2/1 21/2/1
f 23/2/2 24/2/2 25/2/2
f 25/2/2 24/2/2 26/2/2
f 27/2/2 28/2/2 29/2/2
f 29/2/2 28/2/2 30/2/2
f 31/1/2 32/1/2 33/1/2
f 33/1/2 32/1/2 34/1/2
f 35/3/2 36/3/2 40/3/2
f 40/3/2 36/3/2 41/3/2
f 37/1/2 38/1/2 42/1/2
f 38/4/2 39/4/2 43/4/2
f 42/1/2 38/1/2 43/1/2
f 43/4/2 39/4/2 44/4/2
f 47/3/3 46/3/3 45/3/3
f 48/3/3 46/3/3 47/3/3
f 49/1/3 48/1/3 47/1/3
f 50/1/3 48/1/3 49/1/3
f 51/3/3 50/3/3 49/3/3
f 52/3/3 50/3/3 51/3/3
f 57/2/3 54/2/3 53/2/3
f 58/2/3 54/2/3 57/2/3
f 59/2/3 56/2/3 55/2/3
f 60/2/3 56/2/3 59/2/3
f 63/1/3 62/1/3 61/1/3
f 64/1/3 62/1/3 63/1/3
f 67/1/3 66/1/3 65/1/3
f 68/1/3 66/1/3 67/1/3
f 69/3/4 70/3/4 71/3/4
f 71/3/4 70/3/4 72/3/4
f 73/3/4 74/3/4 75/3/4
f 75/3/4 74/3/4 76/3/4
f 77/2/4 78/2/4 81/2/4
f 81/2/4 78/2/4 82/2/4
f 79/2/4 80/2/4 83/2/4
f 83/2/4 80/2/4 84/2/4
f 85/4/4 86/4/4 87/4/4
f 87/4/4 86/4/4 88/4/4
f 87/1/4 88/1/4 89/1/4
f 89/1/4 88/1/4 90/1/4
f 89/4/4 90/4/4 91/4/4
f 91/4/4 90/4/4 92/4/4
f 95/2/5 94/2/5 93/2/5
f 96/2/5 94/2/5 95/2/5
f 101/3/5 98/3/5 97/3/5
f 102/1/5 99/1/5 98/1/5
f 102/3/5 98/3/5 101/3/5
f 103/3/5 100/3/5 99/3/5
f 103/1/5 99/1/5 102/1/5
f 104/3/5 100/3/5 103/3/5
f 105/1/5 103/1/5 102/1/5
f 106/1/5 103/1/5 105/1/5
f 108/1/5 105/1/5 102/1/5
f 109/1/5 103/1/5 106/1/5
f 111/1/5 108/1/5 107/1/5
f 112/1/5 105/1/5 108/1/5
f 112/1/5 108/1/5 111/1/5
f 113/1/5 105/1/5 112/1/5
f 114/1/5 110/1/5 109/1/5
f 114/1/5 109/1/5 106/1/5
f 115/1/5 110/1/5 114/1/5
f 116/1/5 110/1/5 115/1/5
f 117/4/5 112/4/5 111/4/5
f 118/1/5 113/1/5 112/1/5
f 118/4/5 112/4/5 117/4/5
f 118/1/5 114/1/5 113/1/5
f 118/1/5 115/1/5 114/1/5
f 119/4/5 116/4/5 115/4/5
f 119/1/5 115/1/5 118/1/5
f 120/4/5 116/4/5 119/4/5
f 121/3/6 122/3/6 125/3/6
f 122/1/6 123/1/6 126/1/6
f 125/3/6 122/3/6 126/3/6
f 123/3/6 124/3/6 127/3/6
f 126/1/6 123/1/6 127/1/6
f 127/3/6 124/3/6 128/3/6
f 126/1/6 127/1/6 129/1/6
f 129/1/6 127/1/6 130/1/6
f 126/1/6 129/1/6 132/1/6
f 130/1/6 127/1/6 133/1/6
f 131/1/6 132/1/6 135/1/6
f 132/1/6 129/1/6 136/1/6
f 135/1/6 132/1/6 136/1/6
f 136/1/6 129/1/6 137/1/6
f 133/1/6 134/1/6 138/1/6
f 130/1/6 133/1/6 138/1/6
f 138/1/6 134/1/6 139/1/6
f 139/1/6 134/1/6 140/1/6
f 135/4/6 136/4/6 141/4/6
f 136/1/6 137/1/6 142/1/6
f 141/4/6 136/4/6 142/4/6
f 137/1/6 138/1/6 142/1/6
f 138/1/6 139/1/6 142/1/6
f 139/4/6 140/4/6 143/4/6
f 142/1/6 139/1/6 143/1/6
f 143/4/6 140/4/6 144/4/6
f 145/2/6 146/2/6 147/2/6
f 147/2/6 146/2/6 148/2/6
